<?xml version="1.0" standalone="no"?>
<!DOCTYPE svg PUBLIC "-//W3C//DTD SVG 20010904//EN"
 "http://www.w3.org/TR/2001/REC-SVG-20010904/DTD/svg10.dtd">
<svg version="1.0" xmlns="http://www.w3.org/2000/svg"
 width="700.000000pt" height="700.000000pt" viewBox="0 0 700.000000 700.000000"
 preserveAspectRatio="xMidYMid meet">
<metadata>
Created by potrace 1.14, written by Peter Selinger 2001-2017
</metadata>
<g transform="translate(0.000000,700.000000) scale(0.100000,-0.100000)"
fill="#000000" stroke="none">
<path d="M881 6560 c-4 -3 -7 -1379 -6 -3058 0 -2296 3 -3054 12 -3060 8 -5
1823 -8 1865 -3 5 1 9 928 10 2060 l3 2060 139 -80 c77 -43 140 -79 141 -79 1
0 40 -22 86 -48 46 -27 104 -60 129 -74 109 -61 778 -437 980 -551 19 -11 94
-52 165 -92 72 -40 146 -82 165 -94 19 -11 42 -24 50 -28 8 -3 17 -10 20 -14
3 -4 5 -401 5 -883 0 -586 3 -876 10 -876 5 0 61 29 124 65 63 36 116 65 117
65 6 0 194 126 259 173 258 187 488 436 628 678 30 53 66 114 79 135 54 86
168 335 183 399 1 6 5 17 8 25 11 27 56 203 67 260 41 218 55 358 54 561 -1
181 -14 289 -59 499 -22 103 -86 289 -147 428 -44 102 -169 325 -199 358 -10
11 -19 24 -19 28 0 10 -112 156 -181 236 -253 293 -565 515 -979 695 -165 72
-469 165 -591 180 -22 3 -50 7 -62 10 -29 6 -93 13 -197 21 -99 8 -2849 11
-2859 4z"/>
</g>
</svg>
