<?xml version="1.0" standalone="no"?>
<!DOCTYPE svg PUBLIC "-//W3C//DTD SVG 20010904//EN"
 "http://www.w3.org/TR/2001/REC-SVG-20010904/DTD/svg10.dtd">
<svg version="1.0" xmlns="http://www.w3.org/2000/svg"
 width="800.000000pt" height="800.000000pt" viewBox="0 0 800.000000 800.000000"
 preserveAspectRatio="xMidYMid meet">
<metadata>
Created by potrace 1.14, written by Peter Selinger 2001-2017
</metadata>
<g transform="translate(0.000000,800.000000) scale(0.100000,-0.100000)"
fill="#000000" stroke="none">
<path d="M3212 5976 c-48 -16 -90 -33 -94 -39 -9 -15 -4 -34 31 -108 30 -63
33 -99 7 -99 -6 0 -33 7 -59 15 -27 8 -74 15 -105 16 -49 2 -66 -3 -127 -37
-38 -22 -101 -55 -140 -73 -48 -23 -95 -58 -148 -110 -42 -41 -82 -78 -87 -81
-14 -9 -39 -74 -44 -115 -3 -20 -10 -43 -17 -51 -13 -15 -19 -77 -20 -189 0
-38 -3 -73 -5 -77 -3 -4 -17 -2 -32 3 -48 19 -82 17 -108 -8 -14 -13 -29 -23
-34 -23 -20 0 -19 -22 4 -67 21 -42 22 -52 11 -73 -10 -20 -29 -105 -50 -220
-4 -23 -18 -133 -19 -150 -1 -8 2 -28 7 -45 4 -16 10 -37 12 -45 2 -8 13 -60
25 -115 60 -290 165 -623 227 -717 19 -29 44 -73 54 -98 11 -24 38 -71 60
-103 23 -33 47 -77 55 -99 27 -78 157 -304 194 -338 3 -3 17 -23 32 -45 28
-43 38 -54 193 -220 147 -158 170 -181 284 -280 225 -197 427 -331 571 -380 3
-1 12 -5 20 -8 8 -4 24 -8 35 -10 11 -2 27 -7 35 -10 8 -4 31 -8 50 -10 19 -3
62 -12 95 -20 71 -19 151 -29 220 -28 58 1 161 0 225 -3 25 -1 78 6 118 15 52
13 87 15 122 10 53 -8 153 -2 220 14 3 0 28 6 55 13 63 16 97 20 161 21 105 2
150 61 259 343 15 37 28 80 31 95 8 46 53 164 84 224 39 73 62 161 75 285 10
102 28 195 52 269 3 11 7 84 8 162 1 133 -1 150 -36 290 -34 136 -107 381
-142 478 -15 41 -81 189 -97 215 -5 8 -24 44 -42 80 -32 63 -107 190 -118 200
-5 5 -9 12 -68 115 -71 125 -205 274 -413 460 -127 113 -183 159 -245 202 -38
25 -85 58 -104 72 -37 27 -47 33 -138 83 -31 16 -68 38 -82 48 -14 9 -108 59
-210 110 -248 124 -243 122 -260 138 -17 17 -89 51 -108 52 -7 0 -59 18 -115
39 -170 66 -236 70 -365 27z"/>
</g>
</svg>
